<?xml version="1.0" standalone="no"?>
<!DOCTYPE svg PUBLIC "-//W3C//DTD SVG 20010904//EN"
 "http://www.w3.org/TR/2001/REC-SVG-20010904/DTD/svg10.dtd">
<svg version="1.0" xmlns="http://www.w3.org/2000/svg"
 width="500.000000pt" height="500.000000pt" viewBox="0 0 500.000000 500.000000"
 preserveAspectRatio="xMidYMid meet">

<g transform="translate(0.000000,500.000000) scale(0.100000,-0.100000)"
fill="#000000" stroke="none">
<path d="M0 2500 l0 -2500 2500 0 2500 0 0 2500 0 2500 -2500 0 -2500 0 0
-2500z m4260 10 l0 -1600 -292 0 -293 0 -317 317 -318 318 -323 -321 -322
-322 -832 -6 -833 -7 0 1411 0 1410 835 0 835 0 0 -545 0 -545 -305 0 -305 0
0 195 0 195 -230 0 -230 0 0 -710 0 -710 467 0 468 0 387 387 388 388 325
-325 325 -325 0 1198 0 1197 285 0 285 0 0 -1600z"/>
</g>
</svg>
